<svg width="238" height="212" viewBox="0 0 238 212" fill="none" xmlns="http://www.w3.org/2000/svg">
<path fill-rule="evenodd" clip-rule="evenodd" d="M62.2107 161.105C61.4749 160.588 60.7473 160.054 60.0398 159.501C53.5393 154.427 48.2759 147.793 44.8518 140.092C44.1443 140.448 43.4126 140.706 42.6607 140.828C41.9532 140.941 41.2296 140.933 40.4979 140.767C38.9334 140.411 37.8662 139.049 36.3381 138.681C35.6508 138.519 34.9595 138.79 34.2642 138.742C32.8493 138.645 31.5314 137.925 30.5531 136.919C29.4656 135.795 28.5844 134.307 28.2488 132.771C27.9456 131.376 28.1356 129.658 27.2382 128.461C26.1062 126.958 23.523 126.481 21.817 126.153C14.0674 124.674 10.6837 120.89 6.57644 114.781C4.36918 111.499 2.27511 107.97 1.81021 103.967C1.14318 98.2471 3.52832 90.9825 6.39048 86.0829C8.84029 81.8867 12.6201 78.8668 16.501 76.0855C21.7564 72.3138 27.2463 69.3344 33.1282 66.9169C33.864 66.6137 34.6078 66.3227 35.3557 66.0356L34.5836 57.6472C32.0165 29.7007 52.5893 4.96811 80.5358 2.40106L80.645 2.38893C93.9653 1.16807 107.229 5.28748 117.513 13.8376C127.798 22.3917 134.262 34.6853 135.487 48.0056L136.764 61.9162C139.21 61.6049 141.684 61.3907 144.053 60.8207C151.597 59.0055 162.411 52.4727 166.397 45.5396C167.714 43.2434 168.931 40.1913 168.794 37.4989C168.669 34.9682 167.739 32.5872 167.605 30.0565C167.415 26.5475 168.41 22.6343 169.408 19.2991C170.33 16.2308 171.753 11.3433 175.408 10.5267C180.614 9.36242 183.258 17.8034 183.61 21.4377C183.715 22.5009 183.699 23.5843 183.63 24.6515C183.594 25.1286 183.541 25.6015 183.468 26.0745C183.46 26.123 183.396 26.216 183.444 26.2201C186.161 26.5839 190.575 25.4843 193.571 25.5166C194.654 25.5247 196.215 25.3832 197.177 26.0301C200.116 28.0028 198.814 33.6059 198.151 36.3023C195.855 45.665 194.63 55.7674 190.171 64.4145C182.252 79.7683 167.529 89.79 151.439 95.1666C147.51 96.4764 143.948 97.8307 140.12 98.4573L141.648 115.089C142.873 128.437 138.745 141.725 130.175 152.03C127.826 154.856 125.194 157.39 122.34 159.61C121.394 160.345 120.424 161.045 119.43 161.708C119.001 168.059 117.97 174.349 116.604 180.567C115.735 184.516 113.928 188.543 114.603 192.662C115.266 196.705 119.866 198.601 122.571 201.135C124.058 202.534 124.907 204.903 123.589 206.714C121.532 209.544 111.256 209.778 108.3 209.9C101.949 210.154 95.8451 209.386 89.5468 209.277C80.9401 209.128 72.3132 209.269 63.7024 209.245C59.7851 209.233 48.0131 211.121 46.105 206.657C45.2641 204.697 47.5078 203.254 48.7933 202.178C51.7848 199.676 54.8451 197.735 55.9406 193.794C56.543 191.627 56.5551 189.311 57.0726 187.116C58.0104 183.166 59.4496 179.289 60.0722 175.283C60.8281 170.436 61.3011 165.779 62.2107 161.105Z" fill="#1A80E5"/>
<mask id="mask0_602_2984" style="mask-type:luminance" maskUnits="userSpaceOnUse" x="0" y="0" width="238" height="212">
<path d="M0 0H238V211.121H0V0Z" fill="white"/>
</mask>
<g mask="url(#mask0_602_2984)">
<path fill-rule="evenodd" clip-rule="evenodd" d="M59.6409 162.079C58.8526 161.497 58.0845 160.891 57.3286 160.264C51.5719 155.473 46.8178 149.474 43.4867 142.61C42.7227 142.768 41.898 142.865 40.9924 142.885C38.5952 142.933 36.7719 141.878 35.5592 140.277C35.5349 140.249 35.5147 140.217 35.4904 140.184C34.0189 140.31 32.4221 140.075 30.991 139.497C28.7555 138.596 26.9606 136.89 26.3744 134.678C26.1116 133.696 26.1076 132.697 26.2976 131.723C26.3622 131.38 26.4512 131.036 26.5644 130.7C21.689 129.791 16.9511 127.761 12.8681 124.786C5.3003 119.272 -0.00358658 110.548 0.222799 99.8069C0.400673 91.6125 4.98902 84.449 11.2551 78.563C17.8809 72.3333 26.3663 67.5469 32.8991 64.4139L32.2968 57.8568C30.9587 43.2468 35.6926 29.4737 44.4205 19.0195C53.1364 8.57344 65.8382 1.44229 80.4361 0.100151C81.7014 -0.0130422 82.8172 0.916756 82.9344 2.17805C83.0476 3.44338 82.1178 4.55914 80.8565 4.67637C67.5159 5.90128 55.9137 12.418 47.9457 21.9625C39.9737 31.5112 35.6481 44.0917 36.873 57.4364L37.3298 62.4047C38.9873 61.6892 40.3699 61.1353 41.3563 60.7594C42.4558 60.3389 43.6929 60.8887 44.1133 61.9924C44.5378 63.092 43.9839 64.329 42.8844 64.7494C38.1747 66.5524 24.0216 72.4304 14.1779 81.6758C8.77694 86.7493 4.6454 92.8374 4.49583 99.8958C4.30178 109.125 8.88609 116.596 15.3825 121.33C22.2833 126.359 31.3387 128.344 39.2056 126.011C40.1313 125.74 41.1218 126.116 41.6312 126.937C42.1365 127.753 42.0354 128.808 41.3805 129.516C40.7741 130.163 40.1516 130.85 39.6058 131.59C39.1369 132.224 38.7205 132.896 38.4618 133.623C38.1181 134.589 38.11 135.697 38.4294 136.655C38.5183 136.797 38.5952 136.95 38.6477 137.12C38.6679 137.169 38.6801 137.221 38.6962 137.274C39.1167 138.058 39.8524 138.636 40.9035 138.612C42.5286 138.579 43.7939 138.183 44.7965 137.569C45.1806 137.334 45.5282 137.068 45.8435 136.78C45.884 136.724 45.9244 136.671 45.9689 136.623C46.5065 136.008 47.0401 135.353 47.5536 134.662C47.5819 134.618 47.6102 134.569 47.6385 134.525C47.7153 134.395 47.8082 134.278 47.9093 134.173C49.1302 132.451 50.2055 130.531 50.8604 128.505C51.7376 125.797 51.8387 122.89 50.3349 120.089C48.35 116.394 45.4312 114.308 42.5084 113.095C38.4618 111.417 34.3868 111.336 32.4059 111.142C31.3993 111.037 30.708 110.827 30.3685 110.637C29.5155 110.148 29.1921 109.424 29.3053 108.511C29.3416 108.236 29.4306 107.682 30.0289 107.156C30.1097 107.084 30.2997 106.938 30.6151 106.756C31.0072 106.538 31.844 106.105 32.9962 105.499C37.8594 102.924 48.6531 97.0417 53.2375 90.5695C53.9166 89.6074 55.2547 89.381 56.2128 90.0642C57.179 90.7433 57.4054 92.0774 56.7262 93.0395C53.0798 98.1898 45.8759 103.077 40.1879 106.396C39.5209 106.784 38.8781 107.156 38.2596 107.5C40.8267 107.941 43.7778 108.745 46.5712 110.33C49.4293 111.959 52.1257 114.393 54.0985 118.067C55.7802 121.204 56.0794 124.426 55.5054 127.535C54.8747 130.959 53.1445 134.238 51.111 137.023C50.2702 138.349 49.1868 139.695 47.6991 140.762C50.7391 146.972 55.0485 152.397 60.2635 156.735C69.8162 164.674 82.3927 168.976 95.7373 167.747C102.108 167.161 108.229 165.325 113.783 162.402C119.338 159.48 124.323 155.478 128.414 150.558C129.222 149.583 130.673 149.454 131.648 150.263C132.622 151.071 132.755 152.522 131.943 153.497C128.967 157.074 125.56 160.207 121.824 162.851C119.855 175.129 117.066 191.069 116.464 194.489C116.751 194.731 117.305 195.184 117.774 195.499C119.944 196.947 122.924 198.741 124.654 201.308C125.802 203.014 126.465 205.032 126.198 207.461C126.113 208.626 125.192 209.887 123.223 210.457C120.579 211.217 115.457 211.092 114.895 211.075L85.4489 210.991C85.1053 211.104 84.7293 211.136 84.3493 211.059C84.2523 211.043 84.1633 211.015 84.0744 210.986L80.7271 210.974C75.023 210.999 54.1187 211.075 54.1187 211.075C53.5568 211.092 48.6531 211.205 46.1831 210.445C44.0971 209.802 43.2724 208.379 43.4099 207.069C43.7414 203.916 45.124 201.729 46.8704 200.108C48.5561 198.543 50.6057 197.553 52.2915 196.732C52.8898 196.445 53.6781 195.976 53.9732 195.798C54.2724 194.096 57.4822 175.876 59.6126 162.277C59.6207 162.212 59.6328 162.144 59.6409 162.079ZM117.005 165.883C116.646 166.081 116.286 166.275 115.926 166.465C109.842 169.667 103.135 171.68 96.1577 172.323C95.5271 172.38 94.8964 172.428 94.2698 172.46L87.3974 206.722L114.936 206.802C114.96 206.802 114.984 206.802 115.012 206.802C115.012 206.802 117.608 206.907 119.952 206.689C120.607 206.629 121.46 206.443 121.978 206.317C121.95 205.311 121.614 204.446 121.109 203.698C119.399 201.159 116.12 199.655 114.337 198.305C112.813 197.153 112.11 195.883 112.11 194.784C112.11 194.658 112.118 194.537 112.142 194.412C112.142 194.412 114.847 179.058 117.005 165.883ZM89.8998 172.529C80.335 172.291 71.3079 169.485 63.5501 164.723C61.4278 178.096 58.4767 194.865 58.1816 196.534C58.0967 197.642 57.4337 198.697 56.0632 199.562C54.5796 200.5 51.8347 201.329 49.777 203.241C48.92 204.033 48.2085 205.056 47.8527 206.422C48.3014 206.527 48.8836 206.645 49.3566 206.689C51.5517 206.903 53.9975 206.802 53.9975 206.802C54.0258 206.802 54.05 206.802 54.0783 206.802L78.6735 206.709C78.7503 206.701 78.8312 206.697 78.912 206.697L80.7271 206.705L82.134 206.697C82.2067 206.697 82.2795 206.701 82.3482 206.705L83.0395 206.709L89.8998 172.529ZM33.9704 135.907C33.8653 134.65 34.0189 133.364 34.4353 132.188C34.5647 131.832 34.7143 131.485 34.88 131.141C33.5783 131.254 32.2685 131.274 30.9587 131.214C30.801 131.533 30.6636 131.869 30.5666 132.212C30.4412 132.661 30.3806 133.126 30.5019 133.583C30.7566 134.529 31.6298 135.151 32.5879 135.535C33.0285 135.713 33.5015 135.839 33.9704 135.907ZM136.527 59.296C142.761 59.0049 149.075 57.6991 154.201 54.7197C158.883 51.995 162.533 47.8311 164.086 41.6985C164.74 39.1315 165.27 36.5321 165.727 33.9125C166.091 31.8386 166.402 29.7567 166.689 27.6707L160.451 27.3675C159.982 27.3432 159.145 27.0926 158.228 26.3851C157.197 25.5887 155.798 24.1011 154.699 22.2293C153.538 20.2566 152.734 17.8714 152.896 15.458C153.13 12.042 153.821 9.52345 154.594 7.70024C156.174 3.95679 158.187 2.81274 158.187 2.81274C158.515 2.60252 158.895 2.48933 159.283 2.48124L211.966 1.38974C212.31 1.38166 212.649 1.45846 212.957 1.60804L236.784 13.3801C237.527 13.7439 237.988 14.508 237.976 15.3367C237.96 16.1614 237.471 16.9052 236.715 17.2448L213.615 27.606C213.324 27.7354 213.013 27.8001 212.694 27.792L200.695 27.4928C200.736 37.1425 199.143 47.0509 195.804 56.2519C192.222 66.1199 186.635 75.1672 178.922 82.2256C172.539 88.0752 164.761 92.4493 156.441 95.4287C151.178 97.3126 145.692 98.6385 140.21 99.4309L139.822 95.17C144.948 94.414 150.078 93.1689 155.002 91.4063C162.784 88.621 170.065 84.546 176.035 79.0764C183.239 72.4789 188.438 64.0096 191.789 54.7925C194.971 46.0281 196.475 36.5765 196.422 27.3877L185.123 27.1047C184.658 29.0937 184.04 31.026 183.357 32.829C182.944 33.9327 181.707 34.4906 180.604 34.0742C179.504 33.6537 178.946 32.4207 179.363 31.3212C180.349 28.7137 181.194 25.803 181.55 22.8681C181.885 20.0787 181.784 17.265 180.866 14.6939C180.353 13.2548 179.132 12.1552 177.758 11.7388C176.533 11.375 175.166 11.6216 174.16 12.7899C173.4 13.6752 172.951 14.8152 172.628 16.024C172.049 18.1706 171.896 20.5315 171.657 22.484C171.168 26.5388 170.639 30.6097 169.935 34.6482C169.462 37.3689 168.908 40.0734 168.229 42.7496C166.362 50.1192 161.979 55.1361 156.348 58.4106C150.709 61.6932 143.771 63.189 136.915 63.5447L136.527 59.296ZM167.239 23.4219C167.295 22.9368 167.356 22.4557 167.417 21.9706C167.675 19.8402 167.869 17.261 168.5 14.9163C168.993 13.0729 169.757 11.3628 170.922 10.0086C173.177 7.38087 176.23 6.82704 178.983 7.64769C181.594 8.43195 183.919 10.526 184.893 13.2588C185.81 15.834 186.106 18.5991 185.964 21.3885C185.94 21.8736 185.903 22.3628 185.851 22.8479L208.469 23.4138C207.491 21.2066 207.042 18.7648 207.01 16.2463C206.965 12.7131 207.738 9.03025 208.882 5.72745C198.448 5.94575 165.569 6.62491 160.136 6.7381C159.679 7.22321 158.838 8.31876 158.159 10.3441C157.69 11.7388 157.314 13.5135 157.161 15.7491C157.08 16.9578 157.423 18.1463 157.925 19.2055C158.794 21.0408 160.136 22.5406 160.993 23.1147L167.239 23.4219ZM213.163 23.1268L226.762 17.0265C226.653 16.412 226.629 15.8097 226.673 15.2235C226.722 14.5888 226.847 13.9622 227.041 13.3316L213.155 6.47129C212.253 8.89685 211.566 11.5852 211.352 14.2533C211.097 17.4348 211.497 20.5921 213.163 23.1268ZM83.747 41.9815C83.561 40.8172 84.3533 39.7217 85.5176 39.5317C86.6819 39.3457 87.7815 40.1381 87.9674 41.3023L88.2787 43.3277L88.6345 45.5309C88.8204 46.6952 88.0281 47.7948 86.8638 47.9807C85.6995 48.1667 84.5999 47.3743 84.414 46.2101L84.0623 43.9988C84.0623 43.9947 84.0623 43.9947 84.0623 43.9907L83.747 41.9815ZM101.32 39.1638C101.134 37.9995 101.927 36.904 103.091 36.714C104.255 36.528 105.351 37.3244 105.541 38.4887L105.856 40.51L106.204 42.7172C106.394 43.8815 105.601 44.9771 104.433 45.163C103.269 45.349 102.177 44.5566 101.987 43.3924L101.635 41.1811C101.631 41.177 101.631 41.177 101.631 41.173L101.32 39.1638ZM85.2993 59.9589C84.515 59.0817 84.5919 57.7315 85.4691 56.9472C86.3504 56.1589 87.7006 56.2357 88.4889 57.117C88.8811 57.5536 89.3379 57.9134 89.827 58.2206C90.3809 58.5642 90.9792 58.8432 91.5896 59.0857C93.243 59.7406 94.9611 60.0155 96.6711 59.9509C98.4175 59.8821 100.152 59.4698 101.805 58.7623C102.893 58.2974 104.146 58.8028 104.611 59.8862C105.076 60.9696 104.57 62.2268 103.487 62.6917C101.344 63.6054 99.0927 64.1349 96.8369 64.2198C94.5367 64.3047 92.2283 63.9409 90.0089 63.0556C88.9821 62.6473 87.9876 62.1541 87.0861 61.5275C86.4393 61.0787 85.837 60.5613 85.2993 59.9589Z" fill="#060000"/>
</g>
</svg>
